<svg width="41" height="41" viewBox="0 0 41 41" fill="none" xmlns="http://www.w3.org/2000/svg">
<path d="M3 2.25C2.30964 2.25 1.75 2.80964 1.75 3.5V24.5C1.75 25.1904 2.30964 25.75 3 25.75H19C19.4142 25.75 19.75 26.0858 19.75 26.5C19.75 26.9142 19.4142 27.25 19 27.25H3C1.48122 27.25 0.25 26.0188 0.25 24.5V3.5C0.25 1.98122 1.48122 0.75 3 0.75H35C36.5188 0.75 37.75 1.98122 37.75 3.5V13.5C37.75 13.9142 37.4142 14.25 37 14.25C36.5858 14.25 36.25 13.9142 36.25 13.5V3.5C36.25 2.80964 35.6904 2.25 35 2.25H3Z" fill="#1253FA"/>
<path fill-rule="evenodd" clip-rule="evenodd" d="M22.75 21V36.4C22.75 37.873 24.0406 38.9568 25.5352 39.6295C27.1002 40.3338 29.2097 40.75 31.5 40.75C33.7903 40.75 35.8998 40.3338 37.4648 39.6295C38.9594 38.9568 40.25 37.873 40.25 36.4V21C40.25 19.4583 39.0197 18.2645 37.4923 17.5008C35.92 16.7146 33.8003 16.25 31.5 16.25C29.1997 16.25 27.08 16.7146 25.5077 17.5008C23.9803 18.2645 22.75 19.4583 22.75 21ZM26.1786 18.8424C24.8106 19.5264 24.25 20.3326 24.25 21C24.25 21.6674 24.8106 22.4736 26.1786 23.1576C27.5017 23.8192 29.382 24.25 31.5 24.25C33.618 24.25 35.4983 23.8192 36.8214 23.1576C38.1894 22.4736 38.75 21.6674 38.75 21C38.75 20.3326 38.1894 19.5264 36.8214 18.8424C35.4983 18.1808 33.618 17.75 31.5 17.75C29.382 17.75 27.5017 18.1808 26.1786 18.8424ZM38.75 23.7072C38.3733 24.0077 37.9459 24.2724 37.4923 24.4992C35.92 25.2854 33.8003 25.75 31.5 25.75C29.1997 25.75 27.08 25.2854 25.5077 24.4992C25.0541 24.2724 24.6267 24.0077 24.25 23.7072V26.4C24.25 26.9151 24.7501 27.6313 26.1508 28.2616C27.4811 28.8603 29.3716 29.25 31.5 29.25C33.6284 29.25 35.5189 28.8603 36.8492 28.2616C38.2499 27.6313 38.75 26.9151 38.75 26.4V23.7072ZM38.75 33.7072V36.4C38.75 36.9151 38.2499 37.6313 36.8492 38.2616C35.5189 38.8603 33.6284 39.25 31.5 39.25C29.3716 39.25 27.4811 38.8603 26.1508 38.2616C24.7501 37.6313 24.25 36.9151 24.25 36.4V33.7072C24.6267 34.0077 25.054 34.2724 25.5076 34.4992C27.0798 35.2854 29.1995 35.75 31.5 35.75C33.8005 35.75 35.9202 35.2854 37.4924 34.4992C37.946 34.2724 38.3733 34.0077 38.75 33.7072ZM24.25 31C24.25 31.6674 24.8105 32.4736 26.1784 33.1576C27.5015 33.8191 29.3819 34.25 31.5 34.25C33.6181 34.25 35.4985 33.8191 36.8216 33.1576C38.1895 32.4736 38.75 31.6674 38.75 31V28.896C38.3616 29.1787 37.9228 29.4234 37.4648 29.6295C35.8998 30.3338 33.7903 30.75 31.5 30.75C29.2097 30.75 27.1002 30.3338 25.5352 29.6295C25.0772 29.4234 24.6384 29.1787 24.25 28.896V31Z" fill="#1253FA"/>
<path fill-rule="evenodd" clip-rule="evenodd" d="M18.5 9.25C15.8766 9.25 13.75 11.3766 13.75 14C13.75 16.6234 15.8766 18.75 18.5 18.75C21.1234 18.75 23.25 16.6234 23.25 14C23.25 11.3766 21.1234 9.25 18.5 9.25ZM15.25 14C15.25 12.2051 16.7051 10.75 18.5 10.75C20.2949 10.75 21.75 12.2051 21.75 14C21.75 15.7949 20.2949 17.25 18.5 17.25C16.7051 17.25 15.25 15.7949 15.25 14Z" fill="#1253FA"/>
</svg>
