<svg id="Layer_1" data-name="Layer 1" xmlns="http://www.w3.org/2000/svg" viewBox="0 0 256 256.00011">
  <defs>
    <style>
      .cls-1 {
        fill: #1a5aff;
      }

      .cls-2, .cls-4 {
        fill: #fff;
      }

      .cls-3 {
        fill: #2433b8;
      }

      .cls-4 {
        fill-rule: evenodd;
      }
    </style>
  </defs>
  <g>
    <path class="cls-1" d="M128,0h0A128,128,0,0,1,256,128h0A128,128,0,0,1,128,256h0A128,128,0,0,1,0,128H0A128,128,0,0,1,128,0Z"/>
    <path class="cls-2" d="M175.2,72a18.39084,18.39084,0,0,0-15.8,9.1L118.6,152H88.0999v36H129.1a18.10624,18.10624,0,0,0,15.7-9.1L185.7,108H216V72Z"/>
    <path class="cls-2" d="M66.8,188,36,170,86.9999,81A17.8532,17.8532,0,0,1,102.6,72H143v36H112.9Z"/>
    <path class="cls-2" d="M39,72v36A35.99072,35.99072,0,0,0,75,72Z"/>
    <path class="cls-3" d="M254.083,207.482a63.98345,63.98345,0,1,1-46.608-77.567,63.98939,63.98939,0,0,1,46.608,77.567Z"/>
    <path class="cls-3" d="M152,159.5a7.50017,7.50017,0,0,1,7.5-7.5h65a7.50017,7.50017,0,0,1,7.5,7.5v65a7.50017,7.50017,0,0,1-7.5,7.5h-65a7.50017,7.50017,0,0,1-7.5-7.5Z"/>
    <path class="cls-4" d="M159.5,149.5h65a9.99982,9.99982,0,0,1,10,10v65a9.99982,9.99982,0,0,1-10,10h-65a9.99982,9.99982,0,0,1-10-10v-65A9.99982,9.99982,0,0,1,159.5,149.5Zm0,2.5a7.50017,7.50017,0,0,0-7.5,7.5v65a7.50017,7.50017,0,0,0,7.5,7.5h65a7.50017,7.50017,0,0,0,7.5-7.5v-65a7.50017,7.50017,0,0,0-7.5-7.5Z"/>
    <path class="cls-2" d="M219.216,217.223c0-3.135-1.588-4.517-4.641-4.517h-2.722v9.487h2.846c2.991,0,4.517-1.34,4.517-4.475Z"/>
    <path class="cls-4" d="M159.5,205.125a5.00054,5.00054,0,0,0-5,5V224.5a5.00054,5.00054,0,0,0,5,5h65a5.00054,5.00054,0,0,0,5-5V210.125a5.00054,5.00054,0,0,0-5-5Zm40.059,20.038c4.269,0,6.373-1.98,6.352-4.744,0-3.155-2.392-3.96-5.96-4.372-2.805-.309-4.043-.619-4.043-1.918,0-1.031.763-1.815,2.929-1.815,2.331,0,3.486.639,3.733,2.392h3.156c-.33-3.238-2.475-4.908-6.827-4.908-4.063,0-6.043,1.918-6.043,4.393,0,3.155,2.351,3.918,5.548,4.31,2.949.33,4.517.537,4.496,2.042,0,1.196-1.011,2.001-3.279,2.001-2.558,0-3.878-.825-4.105-2.867h-3.238C192.649,223.307,194.568,225.163,199.559,225.163Zm-25.775-15.056v2.619h-4.743v12.087h-3.053V212.726h-4.537v-2.619Zm16.049,7.631c0,5.218-2.392,7.425-6.62,7.425-4.393,0-6.621-2.207-6.621-7.425v-7.631h3.135v7.528c0,3.341,1.135,4.62,3.527,4.62,2.393,0,3.424-1.237,3.424-4.62v-7.528h3.155Zm32.415.145c0,4.764-2.888,6.93-7.405,6.93h-5.981V210.107h5.837c4.558,0,7.549,2.186,7.549,6.992Z"/>
    <path class="cls-2" d="M175.75,161.062h10.938A10.93786,10.93786,0,0,1,175.75,172Z"/>
    <path class="cls-2" d="M197.625,161.062A10.937,10.937,0,0,0,186.688,172v24.062h10.937V172h10.937V161.062Z"/>
  </g>
</svg>
