<svg id="Layer_1" data-name="Layer 1" xmlns="http://www.w3.org/2000/svg" viewBox="0 0 256 256">
  <defs>
    <style>
      .cls-1 {
        fill: #1a5aff;
      }

      .cls-2, .cls-4 {
        fill: #fff;
      }

      .cls-3 {
        fill: #2775c9;
      }

      .cls-4 {
        fill-rule: evenodd;
      }
    </style>
  </defs>
  <path class="cls-1" d="M128,0h0A128,128,0,0,1,256,128h0A128,128,0,0,1,128,256h0A128,128,0,0,1,0,128H0A128,128,0,0,1,128,0Z" transform="translate(0 0.00001)"/>
  <path class="cls-2" d="M175.2,72a18.39084,18.39084,0,0,0-15.8,9.1L118.6,152H88.0999v36H129.1a18.10625,18.10625,0,0,0,15.7-9.1L185.7,108H216V72Z" transform="translate(0 0.00001)"/>
  <path class="cls-2" d="M66.8,188,36,170,86.9999,81A17.8532,17.8532,0,0,1,102.6,72H143v36H112.9Z" transform="translate(0 0.00001)"/>
  <path class="cls-2" d="M39,72v36A35.99072,35.99072,0,0,0,75,72Z" transform="translate(0 0.00001)"/>
  <path class="cls-3" d="M192,256a64,64,0,1,0-64-64A64.00029,64.00029,0,0,0,192,256Z" transform="translate(0 0.00001)"/>
  <path class="cls-4" d="M188.16,168.238v-3.997a3.84,3.84,0,0,1,7.68,0v3.983c6.949,1.046,11.713,4.997,12.984,10.626a2.26328,2.26328,0,0,1-2.21,2.765h-2.078a4.33859,4.33859,0,0,1-3.926-2.492c-1.324-2.816-4.465-4.437-8.647-4.437-5.229,0-8.759,2.566-8.759,6.416,0,3.08,2.342,4.877,8.021,6.224l5.326,1.22c9.4,2.149,13.379,6.031,13.379,12.929,0,7.644-5.337,12.813-14.09,14.032v4.627a3.84,3.84,0,0,1-7.68,0V215.58c-7.754-.936-12.99-5.04-14.22-11.319a1.90546,1.90546,0,0,1,1.504-2.237,1.876,1.876,0,0,1,.366-.036h0l3.154.001a3.69847,3.69847,0,0,1,3.34,2.11c1.452,3.053,5.168,4.948,9.82,4.948,5.582,0,9.464-2.759,9.464-6.609,0-3.337-2.374-5.262-8.213-6.642l-6-1.411c-8.534-1.957-12.576-6.064-12.576-12.673C174.799,174.595,180.171,169.477,188.16,168.238ZM144,192.002a47.85332,47.85332,0,0,1,32.977-45.426,2.30556,2.30556,0,0,1,3.023,2.19v1.353a5.06258,5.06258,0,0,1-3.162,4.692,40.08878,40.08878,0,0,0-.022,74.373A5.09986,5.09986,0,0,1,180,233.911v1.128a2.4495,2.4495,0,0,1-3.222,2.323A47.85244,47.85244,0,0,1,144,192.002Zm96,0a47.85209,47.85209,0,0,1-32.643,45.315A2.54661,2.54661,0,0,1,204,234.903v-.904a5.23236,5.23236,0,0,1,3.257-4.845,40.08767,40.08767,0,0,0,.041-74.287A5.30918,5.30918,0,0,1,204,149.954v-.825a2.5674,2.5674,0,0,1,3.386-2.432A47.85134,47.85134,0,0,1,240,192.002Z" transform="translate(0 0.00001)"/>
</svg>
