<svg width="39" height="42" viewBox="0 0 39 42" fill="none" xmlns="http://www.w3.org/2000/svg">
<path fill-rule="evenodd" clip-rule="evenodd" d="M4.23836 3.00196C2.47566 3.79517 1.75165 4.73632 1.75165 5.5C1.75165 6.26368 2.47566 7.20483 4.23836 7.99804C5.93065 8.75957 8.32117 9.25 11.0017 9.25C13.6821 9.25 16.0727 8.75957 17.7649 7.99804C19.5276 7.20483 20.2517 6.26368 20.2517 5.5C20.2517 4.73632 19.5276 3.79517 17.7649 3.00196C16.0727 2.24043 13.6821 1.75 11.0017 1.75C8.32117 1.75 5.93065 2.24043 4.23836 3.00196ZM3.62281 1.63408C5.5498 0.766931 8.15929 0.25 11.0017 0.25C13.844 0.25 16.4535 0.766931 18.3805 1.63408C20.2371 2.46954 21.7517 3.7784 21.7517 5.5C21.7517 7.2216 20.2371 8.53045 18.3805 9.36592C16.4535 10.2331 13.844 10.75 11.0017 10.75C8.15929 10.75 5.5498 10.2331 3.62281 9.36592C1.76622 8.53045 0.251653 7.2216 0.251653 5.5C0.251653 3.7784 1.76622 2.46954 3.62281 1.63408Z" fill="#1253FA"/>
<path fill-rule="evenodd" clip-rule="evenodd" d="M20.2517 13L20.2517 5.5H21.7517L21.7517 13H20.2517ZM1.75003 5.58335V12C1.75003 12.7938 2.48493 13.7538 4.24151 14.559C5.93253 15.3341 8.32132 15.8334 11 15.8334C13.7953 15.8334 16.4577 15.1734 18.1694 14.3276L18.8339 15.6724C16.8929 16.6315 13.9991 17.3334 11 17.3334C8.15602 17.3334 5.5448 16.8064 3.6165 15.9226C1.75376 15.0688 0.250031 13.7372 0.250031 12V5.58335H1.75003Z" fill="#1253FA"/>
<path fill-rule="evenodd" clip-rule="evenodd" d="M1.75163 12V18.4167C1.75163 18.8034 1.92618 19.2296 2.35943 19.6815C2.79626 20.1371 3.46417 20.5816 4.34725 20.9712C6.11137 21.7496 8.60095 22.25 11.3905 22.25C13.8295 22.25 16.044 21.8673 17.7449 21.2476L18.2584 22.6569C16.3665 23.3462 13.9741 23.75 11.3905 23.75C8.44258 23.75 5.73772 23.2242 3.74177 22.3436C2.74481 21.9038 1.89128 21.3606 1.27668 20.7196C0.658498 20.0748 0.251628 19.2954 0.251628 18.4167V12H1.75163Z" fill="#1253FA"/>
<path fill-rule="evenodd" clip-rule="evenodd" d="M1.75163 17.4025V24.4167C1.75163 24.8034 1.92618 25.2296 2.35946 25.6815C2.79632 26.1371 3.46427 26.5816 4.34741 26.9712C6.11163 27.7496 8.60136 28.25 11.3911 28.25C13.8302 28.25 16.0449 27.8673 17.7448 27.2476L18.2585 28.6569C16.3674 29.3463 13.9748 29.75 11.3911 29.75C8.44301 29.75 5.73801 29.2242 3.74195 28.3436C2.74495 27.9038 1.89137 27.3606 1.27674 26.7196C0.658527 26.0749 0.251628 25.2954 0.251628 24.4167V17.4025H1.75163Z" fill="#1253FA"/>
<path fill-rule="evenodd" clip-rule="evenodd" d="M1.75163 24V30.4167C1.75163 30.8034 1.92618 31.2296 2.35943 31.6815C2.79626 32.1371 3.46417 32.5816 4.34725 32.9712C6.11137 33.7496 8.60095 34.25 11.3905 34.25C13.8295 34.25 16.044 33.8673 17.7449 33.2476L18.2584 34.6569C16.3665 35.3462 13.9741 35.75 11.3905 35.75C8.44258 35.75 5.73772 35.2242 3.74177 34.3436C2.74481 33.9038 1.89128 33.3606 1.27668 32.7196C0.658498 32.0748 0.251628 31.2954 0.251628 30.4167V24H1.75163Z" fill="#1253FA"/>
<path fill-rule="evenodd" clip-rule="evenodd" d="M21.2383 14.002C19.4756 14.7952 18.7516 15.7363 18.7516 16.5C18.7516 17.2637 19.4756 18.2048 21.2383 18.998C22.9306 19.7596 25.3211 20.25 28.0016 20.25C30.6821 20.25 33.0726 19.7596 34.7649 18.998C36.5276 18.2048 37.2516 17.2637 37.2516 16.5C37.2516 15.7363 36.5276 14.7952 34.7649 14.002C33.0726 13.2404 30.6821 12.75 28.0016 12.75C25.3211 12.75 22.9306 13.2404 21.2383 14.002ZM20.6228 12.6341C22.5498 11.7669 25.1593 11.25 28.0016 11.25C30.844 11.25 33.4535 11.7669 35.3805 12.6341C37.2371 13.4695 38.7516 14.7784 38.7516 16.5C38.7516 18.2216 37.2371 19.5305 35.3805 20.3659C33.4535 21.2331 30.844 21.75 28.0016 21.75C25.1593 21.75 22.5498 21.2331 20.6228 20.3659C18.7662 19.5305 17.2516 18.2216 17.2516 16.5C17.2516 14.7784 18.7662 13.4695 20.6228 12.6341Z" fill="#1253FA"/>
<path fill-rule="evenodd" clip-rule="evenodd" d="M18.7516 16.5V23.4167C18.7516 24.2105 19.4865 25.1705 21.2431 25.9756C22.9341 26.7507 25.3229 27.25 28.0016 27.25C30.6803 27.25 33.0691 26.7507 34.7601 25.9756C36.5167 25.1705 37.2516 24.2105 37.2516 23.4167V16.5H38.7516V23.4167C38.7516 25.1538 37.2479 26.4854 35.3852 27.3392C33.4569 28.2231 30.8456 28.75 28.0016 28.75C25.1576 28.75 22.5464 28.2231 20.6181 27.3392C18.7554 26.4854 17.2516 25.1538 17.2516 23.4167V16.5H18.7516Z" fill="#1253FA"/>
<path fill-rule="evenodd" clip-rule="evenodd" d="M18.7516 23V29.4167C18.7516 30.2104 19.4865 31.1705 21.2431 31.9756C22.9341 32.7507 25.3229 33.25 28.0016 33.25C30.6803 33.25 33.0691 32.7507 34.7601 31.9756C36.5167 31.1705 37.2516 30.2104 37.2516 29.4167V23H38.7516V29.4167C38.7516 31.1538 37.2479 32.4854 35.3852 33.3392C33.4569 34.2231 30.8456 34.75 28.0016 34.75C25.1576 34.75 22.5464 34.2231 20.6181 33.3392C18.7554 32.4854 17.2516 31.1538 17.2516 29.4167V23H18.7516Z" fill="#1253FA"/>
<path fill-rule="evenodd" clip-rule="evenodd" d="M18.7516 29.5V36.4167C18.7516 37.2104 19.4865 38.1705 21.2431 38.9756C22.9341 39.7507 25.3229 40.25 28.0016 40.25C30.6803 40.25 33.0691 39.7507 34.7601 38.9756C36.5167 38.1705 37.2516 37.2104 37.2516 36.4167V29.5H38.7516V36.4167C38.7516 38.1538 37.2479 39.4854 35.3852 40.3392C33.4569 41.2231 30.8456 41.75 28.0016 41.75C25.1576 41.75 22.5464 41.2231 20.6181 40.3392C18.7554 39.4854 17.2516 38.1538 17.2516 36.4167V29.5H18.7516Z" fill="#1253FA"/>
</svg>
