<svg width="18" height="14" viewBox="0 0 18 14" fill="none" xmlns="http://www.w3.org/2000/svg">
<path d="M4.5 8.75C4.08579 8.75 3.75 9.08579 3.75 9.5C3.75 9.91421 4.08579 10.25 4.5 10.25H7.5C7.91421 10.25 8.25 9.91421 8.25 9.5C8.25 9.08579 7.91421 8.75 7.5 8.75H4.5Z" fill="#1A5AFF"/>
<path d="M12.5 8.75C12.0858 8.75 11.75 9.08579 11.75 9.5C11.75 9.91421 12.0858 10.25 12.5 10.25H13.5C13.9142 10.25 14.25 9.91421 14.25 9.5C14.25 9.08579 13.9142 8.75 13.5 8.75H12.5Z" fill="#1A5AFF"/>
<path fill-rule="evenodd" clip-rule="evenodd" d="M0.75 2.5C0.75 1.53379 1.53379 0.75 2.5 0.75H15.5C16.4662 0.75 17.25 1.53379 17.25 2.5V11.5C17.25 12.4662 16.4662 13.25 15.5 13.25H2.5C1.53379 13.25 0.75 12.4662 0.75 11.5V2.5ZM2.25 2.5C2.25 2.36221 2.36221 2.25 2.5 2.25H15.5C15.6378 2.25 15.75 2.36221 15.75 2.5V4.75H2.25V2.5ZM15.75 6.25V11.5C15.75 11.6378 15.6378 11.75 15.5 11.75H2.5C2.36221 11.75 2.25 11.6378 2.25 11.5V6.25H15.75Z" fill="#1A5AFF"/>
</svg>
