<svg id="Layer_1" data-name="Layer 1" xmlns="http://www.w3.org/2000/svg" viewBox="0 0 256 256">
  <defs>
    <style>
      .cls-1 {
        fill: #1a5aff;
      }

      .cls-2 {
        fill: #fff;
      }

      .cls-3 {
        fill: #26a17b;
      }
    </style>
  </defs>
  <path class="cls-1" d="M128,0h0A128,128,0,0,1,256,128h0A128,128,0,0,1,128,256h0A128,128,0,0,1,0,128H0A128,128,0,0,1,128,0Z" transform="translate(0 0.00001)"/>
  <path class="cls-2" d="M175.2,72a18.39084,18.39084,0,0,0-15.8,9.1L118.6,152H88.0999v36H129.1a18.10625,18.10625,0,0,0,15.7-9.1L185.7,108H216V72Z" transform="translate(0 0.00001)"/>
  <path class="cls-2" d="M66.8,188,36,170,86.9999,81A17.8532,17.8532,0,0,1,102.6,72H143v36H112.9Z" transform="translate(0 0.00001)"/>
  <path class="cls-2" d="M39,72v36A35.99072,35.99072,0,0,0,75,72Z" transform="translate(0 0.00001)"/>
  <path class="cls-3" d="M192,256a64,64,0,1,0-64-64A64.00029,64.00029,0,0,0,192,256Z" transform="translate(0 0.00001)"/>
  <path class="cls-2" d="M199.238,197.738v-.01c-.442.031-2.726.164-7.809.164-4.065,0-6.915-.113-7.923-.164v.01c-15.63-.689-27.287-3.406-27.287-6.668,0-3.251,11.668-5.978,27.287-6.667v10.629c1.019.072,3.951.247,7.995.247,4.856,0,7.285-.206,7.737-.247V184.413c15.599.7,27.226,3.416,27.226,6.668,0,3.251-11.637,5.968-27.226,6.667Zm0-14.426v-9.507h21.763V159.307H161.754v14.498h21.762v9.507c-17.687.813-30.981,4.312-30.981,8.51s13.304,7.696,30.981,8.519v30.477h15.733V200.341c17.656-.813,30.93-4.311,30.93-8.509,0-4.188-13.274-7.697-30.93-8.509" transform="translate(0 0.00001)"/>
</svg>
