<svg width="102" height="16" viewBox="0 0 102 16" fill="none" xmlns="http://www.w3.org/2000/svg">
<path d="M48.8016 5.00529V2.58894L51.3906 1.81226V5.00529H53.548V7.55109H51.3906V11.9954C51.3906 12.4701 51.4769 12.7721 51.6926 12.9447C51.9084 13.1173 52.2104 13.2036 52.6419 13.2036C52.8145 13.2036 52.9871 13.2036 53.1597 13.2036C53.3323 13.2036 53.4617 13.1605 53.548 13.1173V15.5337C53.4186 15.5768 53.2028 15.6631 52.9439 15.7063C52.6851 15.7494 52.3399 15.7926 51.9084 15.7926C50.8728 15.7926 50.0529 15.4905 49.4489 14.9296C48.8448 14.3686 48.5427 13.5488 48.5427 12.5132V7.55109H46.601V5.00529H48.8016Z" fill="#D0D6E6"/>
<path d="M41.2074 5.00529V2.58894L43.7964 1.81226V5.00529H45.9538V7.55109H43.7964V11.9954C43.7964 12.4701 43.8827 12.7721 44.0984 12.9447C44.3142 13.1173 44.6162 13.2036 45.0477 13.2036C45.2203 13.2036 45.3929 13.2036 45.5655 13.2036C45.7381 13.2036 45.8675 13.1605 45.9538 13.1173V15.5337C45.8244 15.5768 45.6087 15.6631 45.3498 15.7063C45.0909 15.7494 44.7457 15.7926 44.3142 15.7926C43.2786 15.7926 42.4588 15.4905 41.8547 14.9296C41.2506 14.3686 40.9485 13.5488 40.9485 12.5132V7.55109H39.0068V5.00529H41.2074Z" fill="#D0D6E6"/>
<path d="M2.15746 5.00529V2.58894L4.7464 1.81226V5.00529H6.90386V7.55109H4.7464V11.9954C4.7464 12.4701 4.8327 12.7721 5.04845 12.9447C5.26419 13.1173 5.56624 13.2036 5.99773 13.2036C6.17032 13.2036 6.34292 13.2036 6.51552 13.2036C6.68811 13.2036 6.81756 13.1605 6.90386 13.1173V15.5337C6.77441 15.5768 6.55867 15.6631 6.29977 15.7063C6.04088 15.7494 5.69568 15.7926 5.26419 15.7926C4.22861 15.7926 3.40878 15.4905 2.80469 14.9296C2.20061 14.3686 1.89856 13.5488 1.89856 12.5132V7.55109H0V5.00529H2.15746Z" fill="#D0D6E6"/>
<path d="M15.6632 7.85315C14.9728 7.76685 13.9803 7.55111 12.8585 8.41409C12.5996 8.62983 12.427 8.93188 12.2544 9.32022C12.1249 9.70856 12.0386 10.1832 12.0386 10.7441V15.5768H9.14764V5.00531H11.9523C11.9523 5.5231 11.9523 5.99774 11.9523 6.51553C12.0818 6.34293 12.2112 6.12719 12.3407 5.95459C12.5564 5.73884 12.7722 5.56625 12.9879 5.39365C13.6783 4.96216 14.4981 4.87586 15.2748 4.91901C15.3611 4.91901 15.4906 4.91901 15.62 4.96216V7.85315H15.6632Z" fill="#D0D6E6"/>
<path d="M60.6245 4.70325C62.6094 4.70325 64.8531 5.78197 65.7593 8.06888C66.1908 9.19075 66.4065 11.0462 65.7593 12.5995C65.2846 13.7214 64.3354 14.9296 62.8251 15.5768C61.7033 16.0515 59.9341 16.2241 58.4239 15.5768C57.7335 15.2748 57.1726 14.8864 56.6548 14.4118C56.137 13.894 55.7918 13.3331 55.4898 12.6427C55.0151 11.5208 54.8857 9.66539 55.4898 8.11203C55.7918 7.42164 56.137 6.81755 56.6548 6.34291C57.5609 5.39363 58.9417 4.70325 60.6245 4.70325ZM60.6245 13.3331C60.9697 13.3331 61.3149 13.2468 61.6601 13.1173C62.0053 12.9879 62.2642 12.8153 62.5231 12.5564C62.782 12.2975 62.9546 11.9954 63.1272 11.6071C63.3429 11.0462 63.4724 9.92429 63.1272 8.97501C62.9546 8.58667 62.782 8.28462 62.5231 8.02573C62.2642 7.76683 62.0053 7.59424 61.6601 7.46479C61.2286 7.33534 60.7108 7.1196 59.6321 7.46479C59.2869 7.59424 59.028 7.76683 58.7691 8.02573C58.1219 8.62981 57.6472 10.3126 58.165 11.6071C58.2945 11.9954 58.5102 12.2975 58.7691 12.5564C59.028 12.8153 59.2869 12.9879 59.6321 13.1173C59.9773 13.2899 60.2793 13.3331 60.6245 13.3331Z" fill="#D0D6E6"/>
<path d="M74.3891 9.4928L78.704 15.62H75.209L72.4043 11.564L71.1961 12.8153V15.62H68.3051V0H71.1961V8.97501L74.8638 5.04845H78.6177L74.3891 9.4928Z" fill="#D0D6E6"/>
<path d="M89.4481 12.5564C89.3187 13.031 89.1029 13.4625 88.844 13.8508C88.5851 14.2823 88.24 14.6275 87.8085 14.9296C86.0394 16.2672 82.8463 16.3966 80.7752 14.4118C79.2218 12.9447 78.6177 10.2263 79.567 7.93941C80.0416 6.81753 80.9478 5.69565 82.3717 5.04842C84.0113 4.31488 86.7297 4.53063 88.1968 6.12714C89.1892 7.20587 89.707 8.84554 89.5776 10.7441C89.5776 10.9167 89.5344 11.0461 89.5344 11.0461H81.9402C81.9402 11.6071 82.1991 12.0817 82.5011 12.4701C82.8895 12.9879 83.6662 13.4193 84.4428 13.4625C85.0469 13.5056 85.7373 13.3762 86.212 13.031C86.6003 12.729 86.8592 12.3406 87.0318 11.866L89.4481 12.5564ZM86.7729 9.10443C86.7729 8.32775 86.2551 7.59421 85.651 7.29217C84.8743 6.90383 83.8819 6.94698 83.1915 7.33532C82.5443 7.68051 82.0696 8.32775 82.0265 9.14758C83.1052 9.14758 84.1839 9.14758 85.2627 9.14758C85.7373 9.10443 86.2551 9.10443 86.7729 9.10443Z" fill="#D0D6E6"/>
<path d="M94.7123 15.62H91.8214V5.00528H94.626V6.29975C94.9712 5.73881 95.4027 5.35047 95.9637 5.09157C97.2581 4.48749 98.941 4.57379 100.063 5.43677C101.142 6.2566 101.487 7.59422 101.487 8.8887V15.5768H98.5958V9.40649C98.5958 8.28461 97.9485 7.37848 96.7835 7.33533C96.1794 7.33533 95.6185 7.50792 95.2301 7.93942C94.7986 8.37091 94.6692 8.93185 94.6692 9.53593C94.7123 9.49278 94.7123 15.62 94.7123 15.62Z" fill="#D0D6E6"/>
<path d="M24.3793 5.00531H27.2703V15.62H24.4656V14.3255C24.1204 14.8865 23.6889 15.2748 23.1279 15.5337C21.8335 16.1378 20.1507 16.0515 19.0288 15.1885C17.9501 14.3687 17.6049 13.0311 17.6049 11.7366V5.00531H20.4958V11.1756C20.4958 12.2975 21.1431 13.2036 22.3081 13.2468C22.9122 13.2468 23.4731 13.0742 23.8615 12.6427C24.293 12.2112 24.4224 11.6503 24.4224 11.0462C24.3793 11.1325 24.3793 5.00531 24.3793 5.00531Z" fill="#D0D6E6"/>
<path d="M37.9281 12.5564C37.9281 14.8433 35.9432 15.9652 33.6563 15.9652C31.542 15.9652 29.9455 15.059 29.1688 13.4194L31.542 12.0817C31.8441 12.9447 32.5776 13.4625 33.6132 13.4625C34.4762 13.4625 35.0803 13.1605 35.0803 12.5564C35.0803 11.003 29.5572 11.866 29.5572 8.11203C29.5572 5.95457 31.4126 4.70325 33.6132 4.70325C35.3392 4.70325 36.8494 5.47993 37.6692 6.947L35.3392 8.24147C35.0371 7.55109 34.433 7.16275 33.6132 7.16275C32.9228 7.16275 32.3619 7.46479 32.3619 8.02573C32.4482 9.5791 37.9281 8.62982 37.9281 12.5564Z" fill="#D0D6E6"/>
</svg>
