<svg width="46" height="41" viewBox="0 0 46 41" fill="none" xmlns="http://www.w3.org/2000/svg">
<path fill-rule="evenodd" clip-rule="evenodd" d="M43.75 18.75V26.5C43.75 26.9142 44.0858 27.25 44.5 27.25C44.9142 27.25 45.25 26.9142 45.25 26.5V5.5C45.25 2.87665 43.1234 0.75 40.5 0.75H5.5C2.87665 0.75 0.75 2.87665 0.75 5.5V29.5C0.75 32.1234 2.87665 34.25 5.5 34.25H19C19.4142 34.25 19.75 33.9142 19.75 33.5C19.75 33.0858 19.4142 32.75 19 32.75H5.5C3.70507 32.75 2.25 31.2949 2.25 29.5V18.75H43.75ZM2.25 5.5C2.25 3.70507 3.70507 2.25 5.5 2.25H40.5C42.2949 2.25 43.75 3.70507 43.75 5.5V9.25H2.25V5.5ZM2.25 10.75V17.25H43.75V10.75H2.25Z" fill="#1253FA"/>
<path d="M8.25 26C8.25 25.5858 8.58579 25.25 9 25.25H19C19.4142 25.25 19.75 25.5858 19.75 26C19.75 26.4142 19.4142 26.75 19 26.75H9C8.58579 26.75 8.25 26.4142 8.25 26Z" fill="#1253FA"/>
<path d="M33.25 33C33.25 32.5858 32.9142 32.25 32.5 32.25C32.0858 32.25 31.75 32.5858 31.75 33V35C31.75 35.4142 32.0858 35.75 32.5 35.75C32.9142 35.75 33.25 35.4142 33.25 35V33Z" fill="#1253FA"/>
<path fill-rule="evenodd" clip-rule="evenodd" d="M27.5 27.75C25.4289 27.75 23.75 29.4289 23.75 31.5V36.5C23.75 38.5711 25.4289 40.25 27.5 40.25H37.5C39.5711 40.25 41.25 38.5711 41.25 36.5V31.5C41.25 29.4289 39.5711 27.75 37.5 27.75H37.25V26C37.25 23.3858 35.1142 21.25 32.5 21.25C29.8858 21.25 27.75 23.3858 27.75 26V27.75H27.5ZM35.75 26V27.75H29.25V26C29.25 24.2142 30.7142 22.75 32.5 22.75C34.2858 22.75 35.75 24.2142 35.75 26ZM25.25 31.5C25.25 30.2574 26.2574 29.25 27.5 29.25H37.5C38.7426 29.25 39.75 30.2574 39.75 31.5V36.5C39.75 37.7426 38.7426 38.75 37.5 38.75H27.5C26.2574 38.75 25.25 37.7426 25.25 36.5V31.5Z" fill="#1253FA"/>
</svg>
